<svg xmlns="http://www.w3.org/2000/svg" xmlns:xlink="http://www.w3.org/1999/xlink" width="1080" zoomAndPan="magnify" viewBox="0 0 810 809.999993" height="1080" preserveAspectRatio="xMidYMid meet" version="1.0"><defs><clipPath id="799c0b6b75"><path d="M 166.074219 188.664062 L 643.824219 188.664062 L 643.824219 621.414062 L 166.074219 621.414062 Z M 166.074219 188.664062 " clip-rule="nonzero"/></clipPath></defs><g clip-path="url(#799c0b6b75)"><path fill="#a6a6a6" d="M 587.03125 188.828125 L 222.960938 188.828125 C 221.097656 188.832031 219.238281 188.925781 217.386719 189.109375 C 215.53125 189.292969 213.691406 189.570312 211.867188 189.933594 C 210.039062 190.296875 208.234375 190.75 206.453125 191.292969 C 204.671875 191.835938 202.921875 192.464844 201.199219 193.175781 C 199.480469 193.890625 197.800781 194.6875 196.15625 195.566406 C 194.515625 196.445312 192.917969 197.402344 191.371094 198.4375 C 189.824219 199.472656 188.328125 200.582031 186.890625 201.761719 C 185.449219 202.945312 184.070312 204.195312 182.753906 205.511719 C 181.4375 206.828125 180.1875 208.207031 179.007812 209.644531 C 177.824219 211.085938 176.714844 212.578125 175.679688 214.128906 C 174.644531 215.675781 173.6875 217.269531 172.808594 218.914062 C 171.929688 220.554688 171.136719 222.234375 170.421875 223.957031 C 169.707031 225.675781 169.078125 227.429688 168.539062 229.210938 C 167.996094 230.992188 167.542969 232.796875 167.175781 234.621094 C 166.8125 236.449219 166.539062 238.289062 166.351562 240.140625 C 166.167969 241.996094 166.074219 243.851562 166.074219 245.714844 L 166.074219 609.785156 C 166.074219 610.910156 166.238281 612.011719 166.5625 613.089844 C 166.890625 614.164062 167.367188 615.171875 167.992188 616.105469 C 168.617188 617.042969 169.363281 617.867188 170.234375 618.582031 C 171.101562 619.292969 172.058594 619.867188 173.097656 620.296875 C 174.136719 620.726562 175.214844 620.996094 176.335938 621.109375 C 177.453125 621.21875 178.566406 621.164062 179.667969 620.945312 C 180.773438 620.722656 181.820312 620.351562 182.8125 619.820312 C 183.804688 619.289062 184.699219 618.625 185.496094 617.832031 L 273.179688 530.144531 L 587.03125 530.144531 C 588.894531 530.144531 590.75 530.050781 592.605469 529.867188 C 594.457031 529.683594 596.296875 529.40625 598.125 529.042969 C 599.949219 528.675781 601.753906 528.222656 603.535156 527.683594 C 605.320312 527.140625 607.070312 526.511719 608.789062 525.796875 C 610.511719 525.085938 612.191406 524.289062 613.832031 523.410156 C 615.476562 522.53125 617.070312 521.574219 618.621094 520.539062 C 620.167969 519.503906 621.660156 518.394531 623.101562 517.214844 C 624.539062 516.03125 625.917969 514.78125 627.234375 513.464844 C 628.554688 512.148438 629.800781 510.769531 630.984375 509.332031 C 632.164062 507.890625 633.273438 506.398438 634.308594 504.847656 C 635.34375 503.300781 636.300781 501.703125 637.179688 500.0625 C 638.058594 498.421875 638.855469 496.738281 639.570312 495.019531 C 640.28125 493.296875 640.910156 491.546875 641.453125 489.765625 C 641.996094 487.984375 642.449219 486.179688 642.8125 484.351562 C 643.179688 482.527344 643.453125 480.6875 643.636719 478.832031 C 643.820312 476.980469 643.914062 475.121094 643.917969 473.261719 L 643.917969 245.714844 C 643.914062 243.851562 643.820312 241.996094 643.636719 240.140625 C 643.453125 238.289062 643.179688 236.449219 642.8125 234.621094 C 642.449219 232.796875 641.996094 230.992188 641.453125 229.210938 C 640.910156 227.429688 640.28125 225.675781 639.570312 223.957031 C 638.855469 222.234375 638.058594 220.554688 637.179688 218.914062 C 636.300781 217.269531 635.34375 215.675781 634.308594 214.128906 C 633.273438 212.578125 632.164062 211.085938 630.984375 209.644531 C 629.800781 208.207031 628.554688 206.828125 627.234375 205.511719 C 625.917969 204.195312 624.539062 202.945312 623.101562 201.761719 C 621.660156 200.582031 620.167969 199.472656 618.621094 198.4375 C 617.070312 197.402344 615.476562 196.445312 613.832031 195.566406 C 612.191406 194.6875 610.511719 193.890625 608.789062 193.175781 C 607.070312 192.464844 605.320312 191.835938 603.535156 191.292969 C 601.753906 190.75 599.949219 190.296875 598.125 189.933594 C 596.296875 189.570312 594.457031 189.292969 592.605469 189.109375 C 590.75 188.925781 588.894531 188.832031 587.03125 188.828125 Z M 621.164062 473.261719 C 621.160156 474.378906 621.105469 475.492188 620.996094 476.605469 C 620.882812 477.714844 620.71875 478.820312 620.5 479.917969 C 620.28125 481.011719 620.007812 482.09375 619.683594 483.164062 C 619.359375 484.234375 618.984375 485.285156 618.554688 486.316406 C 618.125 487.347656 617.648438 488.355469 617.121094 489.34375 C 616.59375 490.328125 616.019531 491.285156 615.398438 492.214844 C 614.777344 493.144531 614.113281 494.039062 613.402344 494.902344 C 612.695312 495.765625 611.945312 496.59375 611.15625 497.382812 C 610.363281 498.175781 609.539062 498.921875 608.671875 499.632812 C 607.808594 500.34375 606.914062 501.007812 605.984375 501.628906 C 605.054688 502.25 604.097656 502.824219 603.113281 503.351562 C 602.128906 503.878906 601.117188 504.355469 600.085938 504.785156 C 599.054688 505.210938 598.003906 505.589844 596.933594 505.914062 C 595.867188 506.238281 594.78125 506.511719 593.6875 506.730469 C 592.589844 506.949219 591.488281 507.113281 590.375 507.222656 C 589.261719 507.335938 588.148438 507.390625 587.03125 507.390625 L 268.46875 507.390625 C 266.960938 507.390625 265.507812 507.679688 264.113281 508.257812 C 262.722656 508.835938 261.492188 509.65625 260.425781 510.726562 L 188.828125 582.320312 L 188.828125 245.714844 C 188.828125 244.597656 188.886719 243.484375 188.996094 242.371094 C 189.105469 241.257812 189.269531 240.15625 189.488281 239.058594 C 189.707031 237.964844 189.980469 236.882812 190.304688 235.8125 C 190.632812 234.742188 191.007812 233.691406 191.4375 232.660156 C 191.863281 231.628906 192.339844 230.617188 192.867188 229.632812 C 193.394531 228.648438 193.96875 227.691406 194.589844 226.761719 C 195.210938 225.832031 195.878906 224.9375 196.585938 224.074219 C 197.296875 223.207031 198.046875 222.382812 198.835938 221.589844 C 199.625 220.800781 200.453125 220.050781 201.316406 219.34375 C 202.179688 218.632812 203.078125 217.96875 204.003906 217.347656 C 204.933594 216.726562 205.890625 216.152344 206.878906 215.625 C 207.863281 215.097656 208.871094 214.621094 209.902344 214.191406 C 210.9375 213.761719 211.988281 213.386719 213.054688 213.0625 C 214.125 212.738281 215.207031 212.464844 216.304688 212.246094 C 217.398438 212.027344 218.503906 211.863281 219.613281 211.75 C 220.726562 211.640625 221.84375 211.585938 222.960938 211.582031 L 587.03125 211.582031 C 588.148438 211.585938 589.261719 211.640625 590.375 211.75 C 591.488281 211.863281 592.589844 212.027344 593.6875 212.246094 C 594.78125 212.464844 595.867188 212.738281 596.933594 213.0625 C 598.003906 213.386719 599.054688 213.761719 600.085938 214.191406 C 601.117188 214.621094 602.128906 215.097656 603.113281 215.625 C 604.097656 216.152344 605.054688 216.726562 605.984375 217.347656 C 606.914062 217.96875 607.808594 218.632812 608.671875 219.34375 C 609.539062 220.050781 610.363281 220.800781 611.15625 221.589844 C 611.945312 222.382812 612.695312 223.207031 613.402344 224.074219 C 614.113281 224.9375 614.777344 225.832031 615.398438 226.761719 C 616.019531 227.691406 616.59375 228.648438 617.121094 229.632812 C 617.648438 230.617188 618.125 231.628906 618.554688 232.660156 C 618.984375 233.691406 619.359375 234.742188 619.683594 235.8125 C 620.007812 236.882812 620.28125 237.964844 620.5 239.058594 C 620.71875 240.15625 620.882812 241.257812 620.996094 242.371094 C 621.105469 243.484375 621.160156 244.597656 621.164062 245.714844 Z M 552.898438 291.222656 C 552.898438 291.972656 552.828125 292.710938 552.683594 293.445312 C 552.535156 294.175781 552.320312 294.890625 552.035156 295.578125 C 551.75 296.269531 551.398438 296.925781 550.984375 297.546875 C 550.570312 298.167969 550.097656 298.742188 549.570312 299.269531 C 549.039062 299.800781 548.464844 300.269531 547.84375 300.6875 C 547.222656 301.101562 546.566406 301.453125 545.875 301.738281 C 545.1875 302.023438 544.476562 302.238281 543.742188 302.382812 C 543.007812 302.53125 542.269531 302.601562 541.523438 302.601562 L 268.46875 302.601562 C 267.722656 302.601562 266.980469 302.527344 266.25 302.382812 C 265.515625 302.238281 264.804688 302.019531 264.113281 301.734375 C 263.425781 301.449219 262.769531 301.097656 262.148438 300.683594 C 261.527344 300.269531 260.953125 299.796875 260.421875 299.269531 C 259.894531 298.742188 259.421875 298.167969 259.007812 297.546875 C 258.59375 296.925781 258.242188 296.269531 257.957031 295.578125 C 257.671875 294.886719 257.457031 294.175781 257.308594 293.445312 C 257.164062 292.710938 257.089844 291.972656 257.089844 291.222656 C 257.089844 290.476562 257.164062 289.738281 257.308594 289.003906 C 257.457031 288.273438 257.671875 287.5625 257.957031 286.871094 C 258.242188 286.179688 258.59375 285.523438 259.007812 284.902344 C 259.421875 284.28125 259.894531 283.707031 260.421875 283.179688 C 260.953125 282.652344 261.527344 282.179688 262.148438 281.765625 C 262.769531 281.347656 263.425781 281 264.113281 280.714844 C 264.804688 280.425781 265.515625 280.210938 266.25 280.066406 C 266.980469 279.921875 267.722656 279.847656 268.46875 279.847656 L 541.523438 279.847656 C 542.269531 279.847656 543.007812 279.917969 543.742188 280.066406 C 544.476562 280.210938 545.1875 280.425781 545.875 280.710938 C 546.566406 280.996094 547.222656 281.347656 547.84375 281.761719 C 548.464844 282.175781 549.039062 282.648438 549.570312 283.175781 C 550.097656 283.707031 550.570312 284.28125 550.984375 284.902344 C 551.398438 285.523438 551.75 286.179688 552.035156 286.871094 C 552.320312 287.558594 552.535156 288.269531 552.683594 289.003906 C 552.828125 289.738281 552.898438 290.476562 552.898438 291.222656 Z M 552.898438 359.488281 C 552.898438 360.234375 552.828125 360.976562 552.683594 361.707031 C 552.535156 362.441406 552.320312 363.152344 552.035156 363.84375 C 551.75 364.53125 551.398438 365.1875 550.984375 365.808594 C 550.570312 366.429688 550.097656 367.007812 549.570312 367.535156 C 549.039062 368.0625 548.464844 368.535156 547.84375 368.949219 C 547.222656 369.363281 546.566406 369.714844 545.875 370 C 545.1875 370.285156 544.476562 370.503906 543.742188 370.648438 C 543.007812 370.792969 542.269531 370.867188 541.523438 370.863281 L 268.46875 370.863281 C 267.722656 370.863281 266.980469 370.792969 266.25 370.644531 C 265.515625 370.5 264.804688 370.285156 264.113281 370 C 263.425781 369.714844 262.769531 369.363281 262.148438 368.949219 C 261.527344 368.53125 260.953125 368.0625 260.421875 367.53125 C 259.894531 367.003906 259.421875 366.429688 259.007812 365.808594 C 258.59375 365.1875 258.242188 364.53125 257.957031 363.839844 C 257.671875 363.152344 257.457031 362.441406 257.308594 361.707031 C 257.164062 360.976562 257.089844 360.234375 257.089844 359.488281 C 257.089844 358.742188 257.164062 358 257.308594 357.269531 C 257.457031 356.535156 257.671875 355.824219 257.957031 355.132812 C 258.242188 354.445312 258.59375 353.789062 259.007812 353.167969 C 259.421875 352.546875 259.894531 351.972656 260.421875 351.441406 C 260.953125 350.914062 261.527344 350.441406 262.148438 350.027344 C 262.769531 349.613281 263.425781 349.261719 264.113281 348.976562 C 264.804688 348.691406 265.515625 348.476562 266.25 348.328125 C 266.980469 348.183594 267.722656 348.109375 268.46875 348.109375 L 541.523438 348.109375 C 542.269531 348.109375 543.007812 348.183594 543.742188 348.328125 C 544.476562 348.472656 545.1875 348.6875 545.875 348.976562 C 546.566406 349.261719 547.222656 349.609375 547.84375 350.027344 C 548.464844 350.441406 549.039062 350.914062 549.570312 351.441406 C 550.097656 351.96875 550.570312 352.542969 550.984375 353.164062 C 551.398438 353.785156 551.75 354.441406 552.035156 355.132812 C 552.320312 355.824219 552.535156 356.535156 552.683594 357.269531 C 552.828125 358 552.898438 358.742188 552.898438 359.488281 Z M 552.898438 427.75 C 552.898438 428.5 552.828125 429.238281 552.683594 429.972656 C 552.535156 430.703125 552.320312 431.414062 552.035156 432.105469 C 551.75 432.796875 551.398438 433.453125 550.984375 434.074219 C 550.570312 434.695312 550.097656 435.269531 549.570312 435.796875 C 549.039062 436.328125 548.464844 436.796875 547.84375 437.214844 C 547.222656 437.628906 546.566406 437.976562 545.875 438.265625 C 545.1875 438.550781 544.476562 438.765625 543.742188 438.910156 C 543.007812 439.054688 542.269531 439.128906 541.523438 439.128906 L 268.46875 439.128906 C 267.722656 439.128906 266.980469 439.054688 266.25 438.910156 C 265.515625 438.765625 264.804688 438.546875 264.113281 438.261719 C 263.425781 437.976562 262.769531 437.625 262.148438 437.210938 C 261.527344 436.796875 260.953125 436.324219 260.421875 435.796875 C 259.894531 435.269531 259.421875 434.691406 259.007812 434.070312 C 258.59375 433.449219 258.242188 432.796875 257.957031 432.105469 C 257.671875 431.414062 257.457031 430.703125 257.308594 429.96875 C 257.164062 429.238281 257.089844 428.5 257.089844 427.75 C 257.089844 427.003906 257.164062 426.265625 257.308594 425.53125 C 257.457031 424.800781 257.671875 424.085938 257.957031 423.398438 C 258.242188 422.707031 258.59375 422.050781 259.007812 421.429688 C 259.421875 420.808594 259.894531 420.234375 260.421875 419.707031 C 260.953125 419.179688 261.527344 418.707031 262.148438 418.292969 C 262.769531 417.875 263.425781 417.527344 264.113281 417.238281 C 264.804688 416.953125 265.515625 416.738281 266.25 416.59375 C 266.980469 416.445312 267.722656 416.375 268.46875 416.375 L 541.523438 416.375 C 542.269531 416.375 543.007812 416.445312 543.742188 416.589844 C 544.476562 416.738281 545.1875 416.953125 545.875 417.238281 C 546.566406 417.523438 547.222656 417.875 547.84375 418.289062 C 548.464844 418.703125 549.039062 419.175781 549.570312 419.703125 C 550.097656 420.234375 550.570312 420.808594 550.984375 421.429688 C 551.398438 422.050781 551.75 422.707031 552.035156 423.394531 C 552.320312 424.085938 552.535156 424.796875 552.683594 425.53125 C 552.828125 426.265625 552.898438 427.003906 552.898438 427.75 Z M 552.898438 427.75 " fill-opacity="1" fill-rule="nonzero"/></g></svg>