<svg xmlns="http://www.w3.org/2000/svg" xmlns:xlink="http://www.w3.org/1999/xlink" width="1080" zoomAndPan="magnify" viewBox="0 0 810 809.999993" height="1080" preserveAspectRatio="xMidYMid meet" version="1.0"><defs><clipPath id="c560ca2c8a"><path d="M 22.832031 22.832031 L 787.082031 22.832031 L 787.082031 787.082031 L 22.832031 787.082031 Z M 22.832031 22.832031 " clip-rule="nonzero"/></clipPath><clipPath id="d27572f65c"><path d="M 242.398438 286 L 514 286 L 514 558 L 242.398438 558 Z M 242.398438 286 " clip-rule="nonzero"/></clipPath></defs><g clip-path="url(#c560ca2c8a)"><path fill="#ffffff" d="M 787.070312 404.949219 C 787.070312 411.203125 786.914062 417.453125 786.609375 423.699219 C 786.300781 429.945312 785.84375 436.179688 785.230469 442.40625 C 784.617188 448.628906 783.851562 454.832031 782.933594 461.019531 C 782.015625 467.203125 780.945312 473.363281 779.726562 479.496094 C 778.507812 485.632812 777.136719 491.730469 775.617188 497.796875 C 774.097656 503.863281 772.429688 509.890625 770.613281 515.875 C 768.800781 521.859375 766.839844 527.792969 764.730469 533.683594 C 762.625 539.570312 760.375 545.402344 757.980469 551.179688 C 755.589844 556.957031 753.054688 562.671875 750.382812 568.328125 C 747.707031 573.980469 744.898438 579.566406 741.949219 585.078125 C 739 590.59375 735.917969 596.035156 732.703125 601.398438 C 729.488281 606.761719 726.144531 612.042969 722.671875 617.242188 C 719.195312 622.445312 715.597656 627.554688 711.871094 632.578125 C 708.144531 637.601562 704.300781 642.53125 700.332031 647.363281 C 696.363281 652.199219 692.28125 656.933594 688.082031 661.566406 C 683.882812 666.199219 679.570312 670.726562 675.148438 675.148438 C 670.726562 679.570312 666.199219 683.882812 661.566406 688.082031 C 656.933594 692.28125 652.199219 696.363281 647.363281 700.332031 C 642.53125 704.300781 637.601562 708.144531 632.578125 711.871094 C 627.554688 715.597656 622.445312 719.195312 617.242188 722.671875 C 612.042969 726.144531 606.761719 729.488281 601.398438 732.703125 C 596.035156 735.917969 590.59375 739 585.078125 741.949219 C 579.566406 744.898438 573.980469 747.707031 568.328125 750.382812 C 562.671875 753.054688 556.957031 755.589844 551.179688 757.980469 C 545.402344 760.375 539.570312 762.625 533.683594 764.730469 C 527.792969 766.839844 521.859375 768.800781 515.875 770.617188 C 509.890625 772.429688 503.863281 774.097656 497.796875 775.617188 C 491.730469 777.136719 485.632812 778.507812 479.496094 779.726562 C 473.363281 780.945312 467.203125 782.015625 461.019531 782.933594 C 454.832031 783.851562 448.628906 784.617188 442.40625 785.230469 C 436.179688 785.84375 429.945312 786.300781 423.699219 786.609375 C 417.453125 786.914062 411.203125 787.070312 404.949219 787.070312 C 398.695312 787.070312 392.445312 786.914062 386.199219 786.609375 C 379.953125 786.300781 373.71875 785.84375 367.496094 785.230469 C 361.273438 784.617188 355.066406 783.851562 348.882812 782.933594 C 342.695312 782.015625 336.535156 780.945312 330.402344 779.726562 C 324.269531 778.507812 318.167969 777.136719 312.101562 775.617188 C 306.035156 774.097656 300.011719 772.429688 294.027344 770.617188 C 288.042969 768.800781 282.105469 766.839844 276.21875 764.730469 C 270.328125 762.625 264.496094 760.375 258.71875 757.980469 C 252.941406 755.589844 247.226562 753.054688 241.574219 750.382812 C 235.917969 747.707031 230.335938 744.898438 224.820312 741.949219 C 219.304688 739 213.867188 735.917969 208.5 732.703125 C 203.136719 729.488281 197.855469 726.144531 192.65625 722.671875 C 187.457031 719.195312 182.34375 715.597656 177.320312 711.871094 C 172.300781 708.144531 167.371094 704.300781 162.535156 700.332031 C 157.703125 696.363281 152.96875 692.28125 148.335938 688.082031 C 143.699219 683.882812 139.171875 679.570312 134.75 675.148438 C 130.328125 670.726562 126.019531 666.199219 121.820312 661.566406 C 117.617188 656.933594 113.535156 652.199219 109.566406 647.363281 C 105.601562 642.53125 101.753906 637.601562 98.027344 632.578125 C 94.304688 627.554688 90.703125 622.445312 87.230469 617.242188 C 83.753906 612.042969 80.410156 606.761719 77.195312 601.398438 C 73.980469 596.035156 70.898438 590.59375 67.949219 585.078125 C 65.003906 579.566406 62.191406 573.980469 59.519531 568.328125 C 56.84375 562.671875 54.3125 556.957031 51.917969 551.179688 C 49.523438 545.402344 47.273438 539.570312 45.167969 533.683594 C 43.0625 527.792969 41.101562 521.859375 39.285156 515.875 C 37.46875 509.890625 35.800781 503.863281 34.28125 497.796875 C 32.761719 491.730469 31.394531 485.632812 30.171875 479.496094 C 28.953125 473.363281 27.882812 467.203125 26.964844 461.019531 C 26.050781 454.832031 25.285156 448.628906 24.671875 442.40625 C 24.058594 436.179688 23.597656 429.945312 23.292969 423.699219 C 22.984375 417.453125 22.832031 411.203125 22.832031 404.949219 C 22.832031 398.695312 22.984375 392.445312 23.292969 386.199219 C 23.597656 379.953125 24.058594 373.71875 24.671875 367.496094 C 25.285156 361.273438 26.050781 355.066406 26.964844 348.882812 C 27.882812 342.695312 28.953125 336.535156 30.171875 330.402344 C 31.394531 324.269531 32.761719 318.167969 34.28125 312.101562 C 35.800781 306.035156 37.46875 300.011719 39.285156 294.027344 C 41.101562 288.042969 43.0625 282.105469 45.167969 276.21875 C 47.273438 270.328125 49.523438 264.496094 51.917969 258.71875 C 54.3125 252.941406 56.84375 247.226562 59.519531 241.574219 C 62.191406 235.917969 65.003906 230.335938 67.949219 224.820312 C 70.898438 219.304688 73.980469 213.867188 77.195312 208.5 C 80.410156 203.136719 83.753906 197.855469 87.230469 192.65625 C 90.703125 187.457031 94.304688 182.34375 98.027344 177.320312 C 101.753906 172.300781 105.601562 167.371094 109.566406 162.535156 C 113.535156 157.703125 117.617188 152.96875 121.820312 148.335938 C 126.019531 143.699219 130.328125 139.171875 134.75 134.75 C 139.171875 130.328125 143.699219 126.019531 148.335938 121.820312 C 152.96875 117.617188 157.703125 113.535156 162.535156 109.566406 C 167.371094 105.601562 172.300781 101.753906 177.320312 98.027344 C 182.34375 94.304688 187.457031 90.703125 192.65625 87.230469 C 197.855469 83.753906 203.136719 80.410156 208.5 77.195312 C 213.867188 73.980469 219.304688 70.898438 224.820312 67.949219 C 230.335938 65.003906 235.917969 62.191406 241.574219 59.519531 C 247.226562 56.84375 252.941406 54.3125 258.71875 51.917969 C 264.496094 49.523438 270.328125 47.273438 276.21875 45.167969 C 282.105469 43.0625 288.042969 41.101562 294.027344 39.285156 C 300.011719 37.46875 306.035156 35.800781 312.101562 34.28125 C 318.167969 32.761719 324.269531 31.394531 330.402344 30.171875 C 336.535156 28.953125 342.695312 27.882812 348.882812 26.964844 C 355.066406 26.050781 361.273438 25.285156 367.496094 24.671875 C 373.71875 24.058594 379.953125 23.597656 386.199219 23.292969 C 392.445312 22.984375 398.695312 22.832031 404.949219 22.832031 C 411.203125 22.832031 417.453125 22.984375 423.699219 23.292969 C 429.945312 23.597656 436.179688 24.058594 442.40625 24.671875 C 448.628906 25.285156 454.832031 26.050781 461.019531 26.964844 C 467.203125 27.882812 473.363281 28.953125 479.496094 30.171875 C 485.632812 31.394531 491.730469 32.761719 497.796875 34.28125 C 503.863281 35.800781 509.890625 37.46875 515.875 39.285156 C 521.859375 41.101562 527.792969 43.0625 533.683594 45.167969 C 539.570312 47.273438 545.402344 49.523438 551.179688 51.917969 C 556.957031 54.3125 562.671875 56.84375 568.328125 59.519531 C 573.980469 62.191406 579.566406 65.003906 585.078125 67.949219 C 590.59375 70.898438 596.035156 73.980469 601.398438 77.195312 C 606.761719 80.410156 612.042969 83.753906 617.242188 87.230469 C 622.445312 90.703125 627.554688 94.304688 632.578125 98.027344 C 637.601562 101.753906 642.53125 105.601562 647.363281 109.566406 C 652.199219 113.535156 656.933594 117.617188 661.566406 121.820312 C 666.199219 126.019531 670.726562 130.328125 675.148438 134.75 C 679.570312 139.171875 683.882812 143.699219 688.082031 148.335938 C 692.28125 152.96875 696.363281 157.703125 700.332031 162.535156 C 704.300781 167.371094 708.144531 172.300781 711.871094 177.320312 C 715.597656 182.34375 719.195312 187.457031 722.671875 192.65625 C 726.144531 197.855469 729.488281 203.136719 732.703125 208.5 C 735.917969 213.867188 739 219.304688 741.949219 224.820312 C 744.898438 230.335938 747.707031 235.917969 750.382812 241.574219 C 753.054688 247.226562 755.589844 252.941406 757.980469 258.71875 C 760.375 264.496094 762.625 270.328125 764.730469 276.21875 C 766.839844 282.105469 768.800781 288.042969 770.617188 294.027344 C 772.429688 300.011719 774.097656 306.035156 775.617188 312.101562 C 777.136719 318.167969 778.507812 324.269531 779.726562 330.402344 C 780.945312 336.535156 782.015625 342.695312 782.933594 348.882812 C 783.851562 355.066406 784.617188 361.273438 785.230469 367.496094 C 785.84375 373.71875 786.300781 379.953125 786.609375 386.199219 C 786.914062 392.445312 787.070312 398.695312 787.070312 404.949219 Z M 787.070312 404.949219 " fill-opacity="1" fill-rule="nonzero"/></g><path fill="#000000" d="M 579.152344 266.148438 L 548.59375 235.679688 C 545.441406 232.53125 541.292969 230.953125 537.148438 230.953125 C 533.007812 230.953125 528.867188 232.523438 525.710938 235.671875 L 501.269531 260.007812 L 554.710938 313.277344 L 579.152344 288.949219 C 585.472656 282.648438 585.472656 272.429688 579.152344 266.148438 Z M 579.152344 266.148438 " fill-opacity="1" fill-rule="nonzero"/><path fill="#000000" d="M 342.59375 418.144531 L 396.042969 471.417969 L 543.273438 324.691406 L 489.824219 271.414062 Z M 342.59375 418.144531 " fill-opacity="1" fill-rule="nonzero"/><path fill="#000000" d="M 331.058594 429.542969 L 319.648438 494.167969 L 384.507812 482.8125 Z M 331.058594 429.542969 " fill-opacity="1" fill-rule="nonzero"/><g clip-path="url(#d27572f65c)"><path fill="#000000" d="M 478.8125 522.96875 L 277.285156 522.96875 L 277.285156 321.757812 L 419.507812 321.757812 L 454.554688 286.832031 L 264.925781 286.832031 C 252.480469 286.832031 242.300781 296.996094 242.300781 309.421875 L 242.300781 535.308594 C 242.300781 547.738281 252.480469 557.898438 264.925781 557.898438 L 491.167969 557.898438 C 503.613281 557.898438 513.789062 547.738281 513.789062 535.308594 L 513.789062 373.808594 L 478.8125 408.671875 Z M 478.8125 522.96875 " fill-opacity="1" fill-rule="nonzero"/></g></svg>