<svg xmlns="http://www.w3.org/2000/svg" xmlns:xlink="http://www.w3.org/1999/xlink" width="1080" zoomAndPan="magnify" viewBox="0 0 810 809.999993" height="1080" preserveAspectRatio="xMidYMid meet" version="1.0"><path fill="#ff3131" d="M 379.164062 641.683594 C 389.140625 649.324219 397 655.332031 402.050781 659.835938 C 402.667969 660.382812 403.332031 660.867188 404.039062 661.296875 C 404.746094 661.722656 405.484375 662.082031 406.257812 662.375 C 407.027344 662.667969 407.820312 662.886719 408.632812 663.035156 C 409.445312 663.183594 410.265625 663.257812 411.089844 663.257812 C 411.917969 663.257812 412.734375 663.183594 413.546875 663.035156 C 414.359375 662.886719 415.152344 662.667969 415.925781 662.375 C 416.699219 662.082031 417.4375 661.722656 418.144531 661.296875 C 418.851562 660.867188 419.515625 660.382812 420.132812 659.835938 C 425.085938 655.453125 433.246094 649.082031 443.566406 641.015625 C 489.964844 604.710938 576.515625 537.144531 627.558594 451.917969 C 685.449219 355.320312 689.722656 267.472656 639.144531 216.882812 C 635.324219 213.089844 631.300781 209.53125 627.074219 206.199219 C 622.84375 202.867188 618.441406 199.789062 613.859375 196.960938 C 609.28125 194.136719 604.554688 191.578125 599.679688 189.292969 C 594.808594 187.007812 589.820312 185.007812 584.71875 183.292969 C 579.617188 181.574219 574.433594 180.15625 569.171875 179.035156 C 563.90625 177.914062 558.59375 177.097656 553.238281 176.582031 C 547.878906 176.066406 542.511719 175.859375 537.128906 175.960938 C 531.746094 176.0625 526.390625 176.46875 521.054688 177.183594 C 515.585938 177.933594 510.171875 178.960938 504.808594 180.265625 C 499.445312 181.574219 494.164062 183.148438 488.960938 184.996094 C 483.761719 186.847656 478.667969 188.957031 473.683594 191.328125 C 468.699219 193.699219 463.851562 196.316406 459.136719 199.1875 C 454.421875 202.058594 449.863281 205.160156 445.46875 208.496094 C 441.074219 211.835938 436.859375 215.386719 432.828125 219.15625 C 428.796875 222.925781 424.96875 226.894531 421.34375 231.054688 C 417.71875 235.21875 414.316406 239.554688 411.140625 244.070312 C 407.957031 239.558594 404.554688 235.21875 400.929688 231.058594 C 397.304688 226.894531 393.476562 222.929688 389.441406 219.160156 C 385.410156 215.390625 381.195312 211.835938 376.796875 208.5 C 372.398438 205.164062 367.84375 202.0625 363.125 199.191406 C 358.410156 196.324219 353.558594 193.703125 348.574219 191.335938 C 343.589844 188.964844 338.496094 186.855469 333.292969 185.007812 C 328.089844 183.160156 322.808594 181.582031 317.445312 180.277344 C 312.082031 178.972656 306.664062 177.945312 301.195312 177.195312 C 295.863281 176.480469 290.503906 176.070312 285.125 175.96875 C 279.746094 175.867188 274.375 176.074219 269.019531 176.585938 C 263.664062 177.097656 258.351562 177.914062 253.089844 179.035156 C 247.824219 180.15625 242.644531 181.574219 237.542969 183.289062 C 232.441406 185.003906 227.457031 187.003906 222.582031 189.289062 C 217.710938 191.578125 212.988281 194.132812 208.40625 196.960938 C 203.828125 199.789062 199.425781 202.867188 195.199219 206.199219 C 190.972656 209.53125 186.953125 213.089844 183.132812 216.882812 C 120.179688 279.839844 150.160156 383.054688 194.980469 452.300781 C 207.414062 470.621094 220.625 488.363281 234.613281 505.527344 C 248.601562 522.691406 263.316406 539.207031 278.753906 555.082031 C 294.191406 570.953125 310.292969 586.121094 327.058594 600.582031 C 343.828125 615.042969 361.195312 628.746094 379.164062 641.683594 Z M 202.429688 236.179688 C 205.066406 233.558594 207.824219 231.070312 210.707031 228.722656 C 213.589844 226.371094 216.582031 224.167969 219.679688 222.113281 C 222.78125 220.0625 225.972656 218.164062 229.261719 216.425781 C 232.546875 214.6875 235.914062 213.113281 239.355469 211.707031 C 242.796875 210.300781 246.300781 209.070312 249.867188 208.007812 C 253.429688 206.949219 257.039062 206.066406 260.691406 205.363281 C 264.339844 204.660156 268.019531 204.140625 271.722656 203.800781 C 275.425781 203.460938 279.136719 203.304688 282.855469 203.332031 C 287.878906 203.335938 292.882812 203.644531 297.867188 204.257812 C 303.171875 205.070312 308.410156 206.179688 313.585938 207.59375 C 318.761719 209.007812 323.839844 210.714844 328.816406 212.71875 C 333.796875 214.71875 338.640625 217 343.355469 219.558594 C 348.070312 222.121094 352.625 224.945312 357.011719 228.03125 C 361.398438 231.117188 365.597656 234.449219 369.601562 238.019531 C 373.605469 241.589844 377.390625 245.382812 380.953125 249.390625 C 384.519531 253.398438 387.84375 257.601562 390.921875 261.996094 C 394.003906 266.386719 396.820312 270.945312 399.375 275.664062 C 399.699219 276.136719 400.050781 276.589844 400.429688 277.023438 C 400.808594 277.457031 401.214844 277.863281 401.640625 278.246094 C 402.070312 278.632812 402.523438 278.988281 402.992188 279.316406 C 403.464844 279.644531 403.957031 279.941406 404.464844 280.210938 C 404.972656 280.480469 405.496094 280.71875 406.035156 280.921875 C 406.570312 281.128906 407.121094 281.300781 407.675781 281.4375 C 408.234375 281.578125 408.800781 281.679688 409.371094 281.75 C 409.941406 281.820312 410.515625 281.855469 411.089844 281.855469 C 411.667969 281.855469 412.238281 281.820312 412.808594 281.75 C 413.382812 281.679688 413.945312 281.578125 414.503906 281.4375 C 415.0625 281.300781 415.609375 281.128906 416.148438 280.921875 C 416.683594 280.71875 417.207031 280.480469 417.71875 280.210938 C 418.226562 279.941406 418.714844 279.644531 419.1875 279.316406 C 419.660156 278.988281 420.109375 278.632812 420.539062 278.246094 C 420.96875 277.863281 421.375 277.457031 421.753906 277.023438 C 422.132812 276.589844 422.484375 276.136719 422.808594 275.664062 C 425.363281 270.941406 428.179688 266.382812 431.265625 261.984375 C 434.347656 257.589844 437.671875 253.386719 441.242188 249.375 C 444.8125 245.363281 448.597656 241.570312 452.605469 238 C 456.613281 234.425781 460.816406 231.097656 465.207031 228.011719 C 469.601562 224.925781 474.15625 222.101562 478.878906 219.542969 C 483.597656 216.980469 488.449219 214.703125 493.433594 212.707031 C 498.414062 210.707031 503.496094 209.003906 508.679688 207.59375 C 513.859375 206.183594 519.101562 205.078125 524.410156 204.273438 C 528.71875 203.691406 533.046875 203.355469 537.390625 203.265625 C 541.738281 203.179688 546.074219 203.339844 550.402344 203.746094 C 554.730469 204.15625 559.019531 204.808594 563.273438 205.707031 C 567.523438 206.609375 571.710938 207.746094 575.835938 209.125 C 579.957031 210.503906 583.988281 212.113281 587.925781 213.953125 C 591.863281 215.792969 595.683594 217.851562 599.386719 220.128906 C 603.089844 222.402344 606.652344 224.882812 610.070312 227.570312 C 613.488281 230.253906 616.742188 233.125 619.832031 236.179688 C 680.808594 297.15625 623.230469 405.980469 604.125 437.875 C 555.691406 518.75 471.746094 584.28125 426.710938 619.492188 C 420.734375 624.160156 415.464844 628.28125 411.003906 631.855469 C 406.621094 628.378906 401.449219 624.460938 395.71875 620.023438 C 378.378906 607.546875 361.621094 594.339844 345.4375 580.398438 C 329.253906 566.457031 313.710938 551.835938 298.804688 536.539062 C 283.902344 521.238281 269.691406 505.316406 256.179688 488.777344 C 242.664062 472.234375 229.898438 455.136719 217.878906 437.480469 C 178.601562 376.761719 150.992188 287.617188 202.429688 236.179688 Z M 202.429688 236.179688 " fill-opacity="1" fill-rule="nonzero"/></svg>