<svg xmlns="http://www.w3.org/2000/svg" xmlns:xlink="http://www.w3.org/1999/xlink" width="1080" zoomAndPan="magnify" viewBox="0 0 810 809.999993" height="1080" preserveAspectRatio="xMidYMid meet" version="1.0"><defs><clipPath id="d05f6f69a1"><path d="M 97.542969 212 L 584 212 L 584 699 L 97.542969 699 Z M 97.542969 212 " clip-rule="nonzero"/></clipPath></defs><path fill="#000000" d="M 700.46875 175.007812 L 645.757812 120.386719 C 640.109375 114.738281 632.679688 111.90625 625.265625 111.90625 C 617.851562 111.90625 610.4375 114.726562 604.789062 120.371094 L 561.023438 164 L 656.707031 259.496094 L 700.46875 215.878906 C 711.78125 204.585938 711.78125 186.265625 700.46875 175.007812 Z M 700.46875 175.007812 " fill-opacity="1" fill-rule="nonzero"/><path fill="#000000" d="M 276.933594 447.492188 L 372.628906 543 L 636.226562 279.957031 L 540.53125 184.449219 Z M 276.933594 447.492188 " fill-opacity="1" fill-rule="nonzero"/><path fill="#000000" d="M 256.277344 467.929688 L 235.851562 583.785156 L 351.972656 563.425781 Z M 256.277344 467.929688 " fill-opacity="1" fill-rule="nonzero"/><g clip-path="url(#d05f6f69a1)"><path fill="#000000" d="M 520.816406 635.414062 L 160.007812 635.414062 L 160.007812 274.699219 L 414.636719 274.699219 L 477.390625 212.085938 L 137.875 212.085938 C 115.59375 212.085938 97.367188 230.304688 97.367188 252.582031 L 97.367188 657.542969 C 97.367188 679.820312 115.59375 698.039062 137.875 698.039062 L 542.9375 698.039062 C 565.21875 698.039062 583.445312 679.820312 583.445312 657.542969 L 583.445312 368.015625 L 520.816406 430.511719 Z M 520.816406 635.414062 " fill-opacity="1" fill-rule="nonzero"/></g></svg>