<svg xmlns="http://www.w3.org/2000/svg" xmlns:xlink="http://www.w3.org/1999/xlink" width="500" zoomAndPan="magnify" viewBox="0 0 375 374.999991" height="500" preserveAspectRatio="xMidYMid meet" version="1.0"><defs><g/><clipPath id="fa7af19ec9"><path d="M 146.761719 160.039062 L 181.59375 160.039062 L 181.59375 219.675781 L 146.761719 219.675781 Z M 146.761719 160.039062 " clip-rule="nonzero"/></clipPath><clipPath id="d0b361b7cc"><path d="M 155 147 L 178 147 L 178 220 L 155 220 Z M 155 147 " clip-rule="nonzero"/></clipPath><clipPath id="24c72916e8"><path d="M 142.703125 158.539062 L 173.925781 147.859375 L 194.804688 208.886719 L 163.578125 219.566406 Z M 142.703125 158.539062 " clip-rule="nonzero"/></clipPath><clipPath id="17df272190"><path d="M 142.703125 158.539062 L 173.925781 147.859375 L 194.804688 208.886719 L 163.578125 219.566406 Z M 142.703125 158.539062 " clip-rule="nonzero"/></clipPath><clipPath id="9af3af62c1"><path d="M 155 152 L 168 152 L 168 220 L 155 220 Z M 155 152 " clip-rule="nonzero"/></clipPath><clipPath id="4b3ab81a81"><path d="M 142.703125 158.539062 L 173.925781 147.859375 L 194.804688 208.886719 L 163.578125 219.566406 Z M 142.703125 158.539062 " clip-rule="nonzero"/></clipPath><clipPath id="0b1ce9fdda"><path d="M 142.703125 158.539062 L 173.925781 147.859375 L 194.804688 208.886719 L 163.578125 219.566406 Z M 142.703125 158.539062 " clip-rule="nonzero"/></clipPath></defs><rect x="-37.5" width="450" fill="#ffffff" y="-37.499999" height="449.999989" fill-opacity="1"/><rect x="-37.5" width="450" fill="#ffffff" y="-37.499999" height="449.999989" fill-opacity="1"/><g fill="#000000" fill-opacity="1"><g transform="translate(73.094882, 219.676764)"><g><path d="M 67.390625 -40.453125 C 71.816406 -38.898438 75.285156 -36.476562 77.796875 -33.1875 C 80.304688 -29.90625 81.5625 -25.9375 81.5625 -21.28125 C 81.5625 -14.476562 78.828125 -9.226562 73.359375 -5.53125 C 67.898438 -1.84375 60 0 49.65625 0 L 7.765625 0 L 7.765625 -77.578125 L 47.4375 -77.578125 C 57.332031 -77.578125 64.863281 -75.75 70.03125 -72.09375 C 75.207031 -68.4375 77.796875 -63.503906 77.796875 -57.296875 C 77.796875 -53.597656 76.890625 -50.289062 75.078125 -47.375 C 73.273438 -44.457031 70.710938 -42.148438 67.390625 -40.453125 Z M 29.484375 -61.734375 L 29.484375 -46.765625 L 44.546875 -46.765625 C 51.941406 -46.765625 55.640625 -49.28125 55.640625 -54.3125 C 55.640625 -59.257812 51.941406 -61.734375 44.546875 -61.734375 Z M 47.875 -15.84375 C 55.5625 -15.84375 59.40625 -18.46875 59.40625 -23.71875 C 59.40625 -28.96875 55.5625 -31.59375 47.875 -31.59375 L 29.484375 -31.59375 L 29.484375 -15.84375 Z M 47.875 -15.84375 "/></g></g></g><g fill="#000000" fill-opacity="1"><g transform="translate(147.018365, 219.676764)"><g><path d="M 6.765625 -82.234375 L 27.8125 -82.234375 L 27.8125 0 L 6.765625 0 Z M 6.765625 -82.234375 "/></g></g></g><g fill="#000000" fill-opacity="1"><g transform="translate(170.403442, 219.676764)"><g><path d="M 36.90625 1 C 30.476562 1 24.675781 -0.328125 19.5 -2.984375 C 14.332031 -5.648438 10.289062 -9.347656 7.375 -14.078125 C 4.457031 -18.804688 3 -24.160156 3 -30.140625 C 3 -36.054688 4.457031 -41.378906 7.375 -46.109375 C 10.289062 -50.835938 14.316406 -54.507812 19.453125 -57.125 C 24.585938 -59.75 30.40625 -61.0625 36.90625 -61.0625 C 43.40625 -61.0625 49.238281 -59.75 54.40625 -57.125 C 59.582031 -54.507812 63.609375 -50.851562 66.484375 -46.15625 C 69.367188 -41.46875 70.8125 -36.128906 70.8125 -30.140625 C 70.8125 -24.160156 69.367188 -18.804688 66.484375 -14.078125 C 63.609375 -9.347656 59.582031 -5.648438 54.40625 -2.984375 C 49.238281 -0.328125 43.40625 1 36.90625 1 Z M 36.90625 -15.734375 C 40.601562 -15.734375 43.632812 -17.007812 46 -19.5625 C 48.363281 -22.113281 49.546875 -25.640625 49.546875 -30.140625 C 49.546875 -34.578125 48.363281 -38.050781 46 -40.5625 C 43.632812 -43.070312 40.601562 -44.328125 36.90625 -44.328125 C 33.207031 -44.328125 30.175781 -43.070312 27.8125 -40.5625 C 25.445312 -38.050781 24.265625 -34.578125 24.265625 -30.140625 C 24.265625 -25.640625 25.445312 -22.113281 27.8125 -19.5625 C 30.175781 -17.007812 33.207031 -15.734375 36.90625 -15.734375 Z M 36.90625 -15.734375 "/></g></g></g><g fill="#000000" fill-opacity="1"><g transform="translate(232.911421, 219.676764)"><g><path d="M 71.375 -60.0625 L 71.375 -10.96875 C 71.375 0.1875 68.34375 8.550781 62.28125 14.125 C 56.226562 19.707031 47.507812 22.5 36.125 22.5 C 30.21875 22.5 24.675781 21.832031 19.5 20.5 C 14.332031 19.175781 9.9375 17.21875 6.3125 14.625 L 13.96875 -0.109375 C 16.40625 1.878906 19.488281 3.445312 23.21875 4.59375 C 26.945312 5.738281 30.625 6.3125 34.25 6.3125 C 39.789062 6.3125 43.851562 5.09375 46.4375 2.65625 C 49.019531 0.21875 50.3125 -3.398438 50.3125 -8.203125 L 50.3125 -10.203125 C 46.25 -5.472656 40.300781 -3.109375 32.46875 -3.109375 C 27.15625 -3.109375 22.242188 -4.304688 17.734375 -6.703125 C 13.222656 -9.109375 9.640625 -12.507812 6.984375 -16.90625 C 4.328125 -21.300781 3 -26.378906 3 -32.140625 C 3 -37.828125 4.328125 -42.867188 6.984375 -47.265625 C 9.640625 -51.660156 13.222656 -55.054688 17.734375 -57.453125 C 22.242188 -59.859375 27.15625 -61.0625 32.46875 -61.0625 C 41.039062 -61.0625 47.320312 -58.289062 51.3125 -52.75 L 51.3125 -60.0625 Z M 37.453125 -19.84375 C 41.222656 -19.84375 44.34375 -20.984375 46.8125 -23.265625 C 49.289062 -25.554688 50.53125 -28.515625 50.53125 -32.140625 C 50.53125 -35.765625 49.3125 -38.703125 46.875 -40.953125 C 44.4375 -43.203125 41.296875 -44.328125 37.453125 -44.328125 C 33.617188 -44.328125 30.460938 -43.203125 27.984375 -40.953125 C 25.503906 -38.703125 24.265625 -35.765625 24.265625 -32.140625 C 24.265625 -28.515625 25.519531 -25.554688 28.03125 -23.265625 C 30.550781 -20.984375 33.691406 -19.84375 37.453125 -19.84375 Z M 37.453125 -19.84375 "/></g></g></g><g clip-path="url(#fa7af19ec9)"><path fill="#000000" d="M 146.761719 160.039062 L 181.59375 160.039062 L 181.59375 219.636719 L 146.761719 219.636719 Z M 146.761719 160.039062 " fill-opacity="1" fill-rule="nonzero"/></g><g clip-path="url(#d0b361b7cc)"><g clip-path="url(#24c72916e8)"><g clip-path="url(#17df272190)"><path fill="#ffffff" d="M 158.128906 153.261719 L 173.816406 147.894531 L 168.585938 173.230469 L 177.777344 170.085938 L 163.621094 219.664062 L 165.4375 184.347656 L 155.601562 188.265625 Z M 158.128906 153.261719 " fill-opacity="1" fill-rule="nonzero"/></g></g></g><g clip-path="url(#9af3af62c1)"><g clip-path="url(#4b3ab81a81)"><g clip-path="url(#0b1ce9fdda)"><path fill="#000000" d="M 158.128906 153.261719 L 160.832031 152.335938 L 155.601562 188.265625 Z M 163.621094 219.664062 L 167.332031 183.699219 L 165.4375 184.347656 Z M 163.621094 219.664062 " fill-opacity="1" fill-rule="nonzero"/></g></g></g></svg>