<svg xmlns="http://www.w3.org/2000/svg" xmlns:xlink="http://www.w3.org/1999/xlink" width="500" zoomAndPan="magnify" viewBox="0 0 375 374.999991" height="500" preserveAspectRatio="xMidYMid meet" version="1.0"><defs><clipPath id="8046a45071"><path d="M 48.007812 48.007812 L 327.007812 48.007812 L 327.007812 327.007812 L 48.007812 327.007812 Z M 48.007812 48.007812 " clip-rule="nonzero"/></clipPath></defs><rect x="-37.5" width="450" fill="#ffffff" y="-37.499999" height="449.999989" fill-opacity="1"/><rect x="-37.5" width="450" fill="#ffffff" y="-37.499999" height="449.999989" fill-opacity="1"/><g clip-path="url(#8046a45071)"><path fill="#bfbdbc" d="M 327.007812 187.511719 C 327.007812 264.554688 264.554688 327.007812 187.511719 327.007812 C 110.46875 327.007812 48.015625 264.554688 48.015625 187.511719 C 48.015625 110.46875 110.46875 48.015625 187.511719 48.015625 C 264.554688 48.015625 327.007812 110.46875 327.007812 187.511719 " fill-opacity="1" fill-rule="nonzero"/></g><path fill="#ffffff" d="M 237.0625 143.414062 C 237.0625 170.878906 214.796875 193.144531 187.332031 193.144531 C 159.867188 193.144531 137.601562 170.878906 137.601562 143.414062 C 137.601562 115.945312 159.867188 93.683594 187.332031 93.683594 C 214.796875 93.683594 237.0625 115.945312 237.0625 143.414062 " fill-opacity="1" fill-rule="nonzero"/><path fill="#ffffff" d="M 187.332031 320.386719 C 222.523438 320.386719 254.664062 307.347656 279.207031 285.847656 C 271.589844 236.105469 249.15625 201.582031 187.332031 201.582031 C 127.242188 201.582031 103.984375 236.25 95.8125 286.167969 C 120.308594 307.480469 152.3125 320.386719 187.332031 320.386719 " fill-opacity="1" fill-rule="nonzero"/></svg>