<svg xmlns="http://www.w3.org/2000/svg" xmlns:xlink="http://www.w3.org/1999/xlink" width="1080" zoomAndPan="magnify" viewBox="0 0 810 809.999993" height="1080" preserveAspectRatio="xMidYMid meet" version="1.0"><defs><clipPath id="3899e72251"><path d="M 81 73.714844 L 743.25 73.714844 L 743.25 735.964844 L 81 735.964844 Z M 81 73.714844 " clip-rule="nonzero"/></clipPath></defs><g clip-path="url(#3899e72251)"><path fill="#bfbdbc" d="M 743.246094 404.84375 C 743.246094 587.714844 595 735.960938 412.128906 735.960938 C 229.257812 735.960938 81.011719 587.714844 81.011719 404.84375 C 81.011719 221.972656 229.257812 73.726562 412.128906 73.726562 C 595 73.726562 743.246094 221.972656 743.246094 404.84375 " fill-opacity="1" fill-rule="nonzero"/></g><path fill="#ffffff" d="M 529.75 300.171875 C 529.75 365.363281 476.898438 418.210938 411.707031 418.210938 C 346.511719 418.210938 293.660156 365.363281 293.660156 300.171875 C 293.660156 234.972656 346.511719 182.125 411.707031 182.125 C 476.898438 182.125 529.75 234.972656 529.75 300.171875 " fill-opacity="1" fill-rule="nonzero"/><path fill="#ffffff" d="M 411.703125 720.242188 C 495.234375 720.242188 571.53125 689.296875 629.785156 638.261719 C 611.703125 520.183594 558.457031 438.242188 411.703125 438.242188 C 269.074219 438.242188 213.867188 520.53125 194.472656 639.019531 C 252.617188 689.605469 328.582031 720.242188 411.703125 720.242188 " fill-opacity="1" fill-rule="nonzero"/></svg>